<mxfile host="65bd71144e">
    <diagram id="3bo6C73IUEG2Hz7L1Zkq" name="Endpoint Diagram">
        <mxGraphModel dx="1294" dy="577" grid="0" gridSize="10" guides="1" tooltips="1" connect="1" arrows="1" fold="1" page="1" pageScale="1" pageWidth="1169" pageHeight="500" math="0" shadow="0">
            <root>
                <mxCell id="0"/>
                <mxCell id="1" parent="0"/>
                <mxCell id="FwFZrQFAwfDxIqGltFOk-17" value="" style="rounded=0;whiteSpace=wrap;html=1;dashed=1;" parent="1" vertex="1">
                    <mxGeometry x="105" y="95" width="480" height="333" as="geometry"/>
                </mxCell>
                <mxCell id="FwFZrQFAwfDxIqGltFOk-12" value="" style="rounded=0;whiteSpace=wrap;html=1;" parent="1" vertex="1">
                    <mxGeometry x="431" y="123" width="127" height="281" as="geometry"/>
                </mxCell>
                <mxCell id="FwFZrQFAwfDxIqGltFOk-1" value="" style="rounded=0;whiteSpace=wrap;html=1;" parent="1" vertex="1">
                    <mxGeometry x="131" y="123" width="291" height="281" as="geometry"/>
                </mxCell>
                <mxCell id="FwFZrQFAwfDxIqGltFOk-2" value="Actor" style="shape=umlActor;verticalLabelPosition=bottom;verticalAlign=top;html=1;outlineConnect=0;" parent="1" vertex="1">
                    <mxGeometry x="42" y="161" width="30" height="60" as="geometry"/>
                </mxCell>
                <mxCell id="FwFZrQFAwfDxIqGltFOk-10" style="edgeStyle=orthogonalEdgeStyle;rounded=0;orthogonalLoop=1;jettySize=auto;html=1;" parent="1" source="FwFZrQFAwfDxIqGltFOk-4" target="FwFZrQFAwfDxIqGltFOk-9" edge="1">
                    <mxGeometry relative="1" as="geometry"/>
                </mxCell>
                <mxCell id="FwFZrQFAwfDxIqGltFOk-4" value="&lt;span style=&quot;background-color: rgb(255, 255, 255);&quot;&gt;&lt;b&gt;&lt;font style=&quot;font-size: 11px;&quot;&gt;1. API Gateway&lt;/font&gt;&lt;/b&gt;&lt;/span&gt;" style="sketch=0;points=[[0,0,0],[0.25,0,0],[0.5,0,0],[0.75,0,0],[1,0,0],[0,1,0],[0.25,1,0],[0.5,1,0],[0.75,1,0],[1,1,0],[0,0.25,0],[0,0.5,0],[0,0.75,0],[1,0.25,0],[1,0.5,0],[1,0.75,0]];outlineConnect=0;fontColor=#232F3E;fillColor=#9933FF;strokeColor=#ffffff;dashed=0;verticalLabelPosition=bottom;verticalAlign=top;align=center;html=1;fontSize=12;fontStyle=0;aspect=fixed;shape=mxgraph.aws4.resourceIcon;resIcon=mxgraph.aws4.api_gateway;" parent="1" vertex="1">
                    <mxGeometry x="152" y="152" width="78" height="78" as="geometry"/>
                </mxCell>
                <mxCell id="FwFZrQFAwfDxIqGltFOk-15" style="edgeStyle=orthogonalEdgeStyle;rounded=0;orthogonalLoop=1;jettySize=auto;html=1;" parent="1" source="FwFZrQFAwfDxIqGltFOk-9" edge="1">
                    <mxGeometry relative="1" as="geometry">
                        <mxPoint x="450.1500000000001" y="191" as="targetPoint"/>
                    </mxGeometry>
                </mxCell>
                <mxCell id="FwFZrQFAwfDxIqGltFOk-9" value="&lt;b&gt;4. Get Job Lambda&lt;/b&gt;" style="sketch=0;points=[[0,0,0],[0.25,0,0],[0.5,0,0],[0.75,0,0],[1,0,0],[0,1,0],[0.25,1,0],[0.5,1,0],[0.75,1,0],[1,1,0],[0,0.25,0],[0,0.5,0],[0,0.75,0],[1,0.25,0],[1,0.5,0],[1,0.75,0]];outlineConnect=0;fontColor=#232F3E;fillColor=#ED7100;strokeColor=#ffffff;dashed=0;verticalLabelPosition=bottom;verticalAlign=top;align=center;html=1;fontSize=12;fontStyle=0;aspect=fixed;shape=mxgraph.aws4.resourceIcon;resIcon=mxgraph.aws4.lambda;" parent="1" vertex="1">
                    <mxGeometry x="310" y="152" width="78" height="78" as="geometry"/>
                </mxCell>
                <mxCell id="FwFZrQFAwfDxIqGltFOk-11" value="Serverless Layer" style="text;html=1;align=center;verticalAlign=middle;whiteSpace=wrap;rounded=0;labelBackgroundColor=#FFFFFF;fontStyle=1" parent="1" vertex="1">
                    <mxGeometry x="142" y="109" width="105" height="30" as="geometry"/>
                </mxCell>
                <mxCell id="FwFZrQFAwfDxIqGltFOk-13" value="Data Layer" style="text;html=1;align=center;verticalAlign=middle;whiteSpace=wrap;rounded=0;labelBackgroundColor=#FFFFFF;fontStyle=1" parent="1" vertex="1">
                    <mxGeometry x="442" y="109" width="105" height="30" as="geometry"/>
                </mxCell>
                <mxCell id="FwFZrQFAwfDxIqGltFOk-18" value="Security Layer" style="text;html=1;align=center;verticalAlign=middle;whiteSpace=wrap;rounded=0;labelBackgroundColor=#FFFFFF;fontStyle=1" parent="1" vertex="1">
                    <mxGeometry x="283" y="79" width="105" height="30" as="geometry"/>
                </mxCell>
                <mxCell id="FwFZrQFAwfDxIqGltFOk-19" style="edgeStyle=orthogonalEdgeStyle;rounded=1;orthogonalLoop=1;jettySize=auto;html=1;entryX=0;entryY=0.5;entryDx=0;entryDy=0;entryPerimeter=0;curved=0;" parent="1" source="FwFZrQFAwfDxIqGltFOk-2" target="FwFZrQFAwfDxIqGltFOk-4" edge="1">
                    <mxGeometry relative="1" as="geometry"/>
                </mxCell>
                <mxCell id="FwFZrQFAwfDxIqGltFOk-20" value="Information Details" style="shape=table;startSize=30;container=1;collapsible=0;childLayout=tableLayout;strokeColor=default;fontSize=13;fontStyle=1;" parent="1" vertex="1">
                    <mxGeometry x="592" y="95" width="525.5" height="333" as="geometry"/>
                </mxCell>
                <mxCell id="FwFZrQFAwfDxIqGltFOk-21" value="" style="shape=tableRow;horizontal=0;startSize=0;swimlaneHead=0;swimlaneBody=0;strokeColor=inherit;top=0;left=0;bottom=0;right=0;collapsible=0;dropTarget=0;fillColor=none;points=[[0,0.5],[1,0.5]];portConstraint=eastwest;fontSize=11;" parent="FwFZrQFAwfDxIqGltFOk-20" vertex="1">
                    <mxGeometry y="30" width="525.5" height="25" as="geometry"/>
                </mxCell>
                <mxCell id="FwFZrQFAwfDxIqGltFOk-37" value="&lt;font style=&quot;font-size: 13px;&quot;&gt;NÂ°&lt;/font&gt;" style="shape=partialRectangle;html=1;whiteSpace=wrap;connectable=0;strokeColor=inherit;overflow=hidden;fillColor=none;top=0;left=0;bottom=0;right=0;pointerEvents=1;fontSize=11;fontStyle=1" parent="FwFZrQFAwfDxIqGltFOk-21" vertex="1">
                    <mxGeometry width="57" height="25" as="geometry">
                        <mxRectangle width="57" height="25" as="alternateBounds"/>
                    </mxGeometry>
                </mxCell>
                <mxCell id="FwFZrQFAwfDxIqGltFOk-22" value="&lt;font style=&quot;font-size: 13px;&quot;&gt;AWS Resource&lt;/font&gt;" style="shape=partialRectangle;html=1;whiteSpace=wrap;connectable=0;strokeColor=inherit;overflow=hidden;fillColor=none;top=0;left=0;bottom=0;right=0;pointerEvents=1;fontSize=11;fontStyle=1" parent="FwFZrQFAwfDxIqGltFOk-21" vertex="1">
                    <mxGeometry x="57" width="108" height="25" as="geometry">
                        <mxRectangle width="108" height="25" as="alternateBounds"/>
                    </mxGeometry>
                </mxCell>
                <mxCell id="FwFZrQFAwfDxIqGltFOk-24" value="&lt;font style=&quot;font-size: 13px;&quot;&gt;Details&lt;/font&gt;" style="shape=partialRectangle;html=1;whiteSpace=wrap;connectable=0;strokeColor=inherit;overflow=hidden;fillColor=none;top=0;left=0;bottom=0;right=0;pointerEvents=1;fontSize=11;fontStyle=1" parent="FwFZrQFAwfDxIqGltFOk-21" vertex="1">
                    <mxGeometry x="165" width="361" height="25" as="geometry">
                        <mxRectangle width="361" height="25" as="alternateBounds"/>
                    </mxGeometry>
                </mxCell>
                <mxCell id="FwFZrQFAwfDxIqGltFOk-25" value="" style="shape=tableRow;horizontal=0;startSize=0;swimlaneHead=0;swimlaneBody=0;strokeColor=inherit;top=0;left=0;bottom=0;right=0;collapsible=0;dropTarget=0;fillColor=none;points=[[0,0.5],[1,0.5]];portConstraint=eastwest;fontSize=11;" parent="FwFZrQFAwfDxIqGltFOk-20" vertex="1">
                    <mxGeometry y="55" width="525.5" height="109" as="geometry"/>
                </mxCell>
                <mxCell id="FwFZrQFAwfDxIqGltFOk-38" value="1" style="shape=partialRectangle;html=1;whiteSpace=wrap;connectable=0;strokeColor=inherit;overflow=hidden;fillColor=none;top=0;left=0;bottom=0;right=0;pointerEvents=1;fontSize=11;" parent="FwFZrQFAwfDxIqGltFOk-25" vertex="1">
                    <mxGeometry width="57" height="109" as="geometry">
                        <mxRectangle width="57" height="109" as="alternateBounds"/>
                    </mxGeometry>
                </mxCell>
                <mxCell id="FwFZrQFAwfDxIqGltFOk-26" value="API Gateway" style="shape=partialRectangle;html=1;whiteSpace=wrap;connectable=0;strokeColor=inherit;overflow=hidden;fillColor=none;top=0;left=0;bottom=0;right=0;pointerEvents=1;fontSize=11;" parent="FwFZrQFAwfDxIqGltFOk-25" vertex="1">
                    <mxGeometry x="57" width="108" height="109" as="geometry">
                        <mxRectangle width="108" height="109" as="alternateBounds"/>
                    </mxGeometry>
                </mxCell>
                <mxCell id="FwFZrQFAwfDxIqGltFOk-28" value="&lt;font face=&quot;Courier New&quot;&gt;&lt;font style=&quot;font-size: 12px;&quot;&gt;&lt;b&gt;&lt;font style=&quot;font-size: 12px;&quot;&gt;GET /params?app={&lt;/font&gt;&lt;/b&gt;&lt;b&gt;app_name&lt;/b&gt;&lt;b&gt;&lt;font style=&quot;font-size: 12px;&quot;&gt;}&lt;/font&gt;&lt;/b&gt;&lt;b&gt;&lt;font style=&quot;font-size: 12px;&quot;&gt;&amp;nbsp;HTTP/1.1&lt;/font&gt;&lt;/b&gt;&lt;/font&gt;&lt;br&gt;&lt;br&gt;&lt;b style=&quot;font-size: 13px;&quot;&gt;Host: &lt;/b&gt;&lt;span style=&quot;font-size: 13px;&quot;&gt;https://client-api.&lt;/span&gt;&lt;b style=&quot;font-size: 12px;&quot;&gt;&lt;font color=&quot;#cc0000&quot;&gt;&lt;span style=&quot;text-align: left; background-color: rgb(255, 255, 255);&quot;&gt;&amp;lt;ENV&lt;/span&gt;&lt;span style=&quot;text-align: left; background-color: rgb(255, 255, 255);&quot;&gt;&amp;gt;&lt;/span&gt;&lt;/font&gt;&lt;/b&gt;&lt;span style=&quot;font-size: 13px;&quot;&gt;.superapp.coto.com.ar/params/api-docs&lt;br&gt;&lt;/span&gt;&lt;br&gt;&lt;b style=&quot;font-size: 13px;&quot;&gt;Authorization: &lt;/b&gt;&lt;span style=&quot;font-size: 13px;&quot;&gt;None&lt;/span&gt;&lt;/font&gt;" style="shape=partialRectangle;html=1;whiteSpace=wrap;connectable=0;strokeColor=inherit;overflow=hidden;fillColor=none;top=0;left=0;bottom=0;right=0;pointerEvents=1;fontSize=11;" parent="FwFZrQFAwfDxIqGltFOk-25" vertex="1">
                    <mxGeometry x="165" width="361" height="109" as="geometry">
                        <mxRectangle width="361" height="109" as="alternateBounds"/>
                    </mxGeometry>
                </mxCell>
                <mxCell id="FwFZrQFAwfDxIqGltFOk-33" style="shape=tableRow;horizontal=0;startSize=0;swimlaneHead=0;swimlaneBody=0;strokeColor=inherit;top=0;left=0;bottom=0;right=0;collapsible=0;dropTarget=0;fillColor=none;points=[[0,0.5],[1,0.5]];portConstraint=eastwest;fontSize=11;" parent="FwFZrQFAwfDxIqGltFOk-20" vertex="1">
                    <mxGeometry y="164" width="525.5" height="34" as="geometry"/>
                </mxCell>
                <mxCell id="FwFZrQFAwfDxIqGltFOk-40" value="2" style="shape=partialRectangle;html=1;whiteSpace=wrap;connectable=0;strokeColor=inherit;overflow=hidden;fillColor=none;top=0;left=0;bottom=0;right=0;pointerEvents=1;fontSize=11;" parent="FwFZrQFAwfDxIqGltFOk-33" vertex="1">
                    <mxGeometry width="57" height="34" as="geometry">
                        <mxRectangle width="57" height="34" as="alternateBounds"/>
                    </mxGeometry>
                </mxCell>
                <mxCell id="FwFZrQFAwfDxIqGltFOk-34" value="Authorizer Lambda" style="shape=partialRectangle;html=1;whiteSpace=wrap;connectable=0;strokeColor=inherit;overflow=hidden;fillColor=none;top=0;left=0;bottom=0;right=0;pointerEvents=1;fontSize=11;" parent="FwFZrQFAwfDxIqGltFOk-33" vertex="1">
                    <mxGeometry x="57" width="108" height="34" as="geometry">
                        <mxRectangle width="108" height="34" as="alternateBounds"/>
                    </mxGeometry>
                </mxCell>
                <mxCell id="FwFZrQFAwfDxIqGltFOk-36" value="&lt;span style=&quot;font-family: &amp;quot;Courier New&amp;quot;;&quot;&gt;&lt;font style=&quot;font-size: 13px;&quot;&gt;&lt;b&gt;lambda = &lt;/b&gt;None&lt;/font&gt;&lt;/span&gt;" style="shape=partialRectangle;html=1;whiteSpace=wrap;connectable=0;strokeColor=inherit;overflow=hidden;fillColor=none;top=0;left=0;bottom=0;right=0;pointerEvents=1;fontSize=11;" parent="FwFZrQFAwfDxIqGltFOk-33" vertex="1">
                    <mxGeometry x="165" width="361" height="34" as="geometry">
                        <mxRectangle width="361" height="34" as="alternateBounds"/>
                    </mxGeometry>
                </mxCell>
                <mxCell id="eOx0RVlwl970yt2SOErL-3" style="shape=tableRow;horizontal=0;startSize=0;swimlaneHead=0;swimlaneBody=0;strokeColor=inherit;top=0;left=0;bottom=0;right=0;collapsible=0;dropTarget=0;fillColor=none;points=[[0,0.5],[1,0.5]];portConstraint=eastwest;fontSize=11;" parent="FwFZrQFAwfDxIqGltFOk-20" vertex="1">
                    <mxGeometry y="198" width="525.5" height="34" as="geometry"/>
                </mxCell>
                <mxCell id="eOx0RVlwl970yt2SOErL-4" value="3" style="shape=partialRectangle;html=1;whiteSpace=wrap;connectable=0;strokeColor=inherit;overflow=hidden;fillColor=none;top=0;left=0;bottom=0;right=0;pointerEvents=1;fontSize=11;" parent="eOx0RVlwl970yt2SOErL-3" vertex="1">
                    <mxGeometry width="57" height="34" as="geometry">
                        <mxRectangle width="57" height="34" as="alternateBounds"/>
                    </mxGeometry>
                </mxCell>
                <mxCell id="eOx0RVlwl970yt2SOErL-5" value="AVP" style="shape=partialRectangle;html=1;whiteSpace=wrap;connectable=0;strokeColor=inherit;overflow=hidden;fillColor=none;top=0;left=0;bottom=0;right=0;pointerEvents=1;fontSize=11;" parent="eOx0RVlwl970yt2SOErL-3" vertex="1">
                    <mxGeometry x="57" width="108" height="34" as="geometry">
                        <mxRectangle width="108" height="34" as="alternateBounds"/>
                    </mxGeometry>
                </mxCell>
                <mxCell id="eOx0RVlwl970yt2SOErL-6" value="&lt;span style=&quot;font-family: &amp;quot;Courier New&amp;quot;;&quot;&gt;&lt;font style=&quot;font-size: 13px;&quot;&gt;&lt;b&gt;Action:&lt;/b&gt;&amp;nbsp;None&lt;/font&gt;&lt;/span&gt;" style="shape=partialRectangle;html=1;whiteSpace=wrap;connectable=0;strokeColor=inherit;overflow=hidden;fillColor=none;top=0;left=0;bottom=0;right=0;pointerEvents=1;fontSize=11;" parent="eOx0RVlwl970yt2SOErL-3" vertex="1">
                    <mxGeometry x="165" width="361" height="34" as="geometry">
                        <mxRectangle width="361" height="34" as="alternateBounds"/>
                    </mxGeometry>
                </mxCell>
                <mxCell id="FwFZrQFAwfDxIqGltFOk-29" value="" style="shape=tableRow;horizontal=0;startSize=0;swimlaneHead=0;swimlaneBody=0;strokeColor=inherit;top=0;left=0;bottom=0;right=0;collapsible=0;dropTarget=0;fillColor=none;points=[[0,0.5],[1,0.5]];portConstraint=eastwest;fontSize=11;" parent="FwFZrQFAwfDxIqGltFOk-20" vertex="1">
                    <mxGeometry y="232" width="525.5" height="34" as="geometry"/>
                </mxCell>
                <mxCell id="FwFZrQFAwfDxIqGltFOk-39" value="4" style="shape=partialRectangle;html=1;whiteSpace=wrap;connectable=0;strokeColor=inherit;overflow=hidden;fillColor=none;top=0;left=0;bottom=0;right=0;pointerEvents=1;fontSize=11;" parent="FwFZrQFAwfDxIqGltFOk-29" vertex="1">
                    <mxGeometry width="57" height="34" as="geometry">
                        <mxRectangle width="57" height="34" as="alternateBounds"/>
                    </mxGeometry>
                </mxCell>
                <mxCell id="FwFZrQFAwfDxIqGltFOk-30" value="Get Job Lambda" style="shape=partialRectangle;html=1;whiteSpace=wrap;connectable=0;strokeColor=inherit;overflow=hidden;fillColor=none;top=0;left=0;bottom=0;right=0;pointerEvents=1;fontSize=11;" parent="FwFZrQFAwfDxIqGltFOk-29" vertex="1">
                    <mxGeometry x="57" width="108" height="34" as="geometry">
                        <mxRectangle width="108" height="34" as="alternateBounds"/>
                    </mxGeometry>
                </mxCell>
                <mxCell id="FwFZrQFAwfDxIqGltFOk-32" value="&lt;font size=&quot;1&quot; face=&quot;Courier New&quot;&gt;&lt;b style=&quot;font-size: 13px;&quot;&gt;lambda = &lt;/b&gt;&lt;span style=&quot;font-size: 13px;&quot;&gt;lam_coto_get_app_params&lt;/span&gt;&lt;/font&gt;" style="shape=partialRectangle;html=1;whiteSpace=wrap;connectable=0;strokeColor=inherit;overflow=hidden;fillColor=none;top=0;left=0;bottom=0;right=0;pointerEvents=1;fontSize=11;" parent="FwFZrQFAwfDxIqGltFOk-29" vertex="1">
                    <mxGeometry x="165" width="361" height="34" as="geometry">
                        <mxRectangle width="361" height="34" as="alternateBounds"/>
                    </mxGeometry>
                </mxCell>
                <mxCell id="FwFZrQFAwfDxIqGltFOk-41" style="shape=tableRow;horizontal=0;startSize=0;swimlaneHead=0;swimlaneBody=0;strokeColor=inherit;top=0;left=0;bottom=0;right=0;collapsible=0;dropTarget=0;fillColor=none;points=[[0,0.5],[1,0.5]];portConstraint=eastwest;fontSize=11;" parent="FwFZrQFAwfDxIqGltFOk-20" vertex="1">
                    <mxGeometry y="266" width="525.5" height="67" as="geometry"/>
                </mxCell>
                <mxCell id="FwFZrQFAwfDxIqGltFOk-42" value="5" style="shape=partialRectangle;html=1;whiteSpace=wrap;connectable=0;strokeColor=inherit;overflow=hidden;fillColor=none;top=0;left=0;bottom=0;right=0;pointerEvents=1;fontSize=11;" parent="FwFZrQFAwfDxIqGltFOk-41" vertex="1">
                    <mxGeometry width="57" height="67" as="geometry">
                        <mxRectangle width="57" height="67" as="alternateBounds"/>
                    </mxGeometry>
                </mxCell>
                <mxCell id="FwFZrQFAwfDxIqGltFOk-43" value="DynamoDB" style="shape=partialRectangle;html=1;whiteSpace=wrap;connectable=0;strokeColor=inherit;overflow=hidden;fillColor=none;top=0;left=0;bottom=0;right=0;pointerEvents=1;fontSize=11;" parent="FwFZrQFAwfDxIqGltFOk-41" vertex="1">
                    <mxGeometry x="57" width="108" height="67" as="geometry">
                        <mxRectangle width="108" height="67" as="alternateBounds"/>
                    </mxGeometry>
                </mxCell>
                <mxCell id="FwFZrQFAwfDxIqGltFOk-44" value="&lt;font face=&quot;Courier New&quot; style=&quot;font-size: 12px;&quot;&gt;&lt;font style=&quot;font-size: 12px;&quot;&gt;&lt;b&gt;Database: &lt;/b&gt;coto_db_&lt;/font&gt;&lt;span style=&quot;color: rgb(204, 0, 0); text-align: left; background-color: rgb(255, 255, 255);&quot;&gt;&amp;lt;ENV&lt;/span&gt;&lt;span style=&quot;text-align: left; background-color: rgb(255, 255, 255);&quot;&gt;&lt;font color=&quot;#cc0000&quot;&gt;&amp;gt;&lt;/font&gt;&lt;br&gt;&lt;br&gt;&lt;b&gt;Collection: &lt;/b&gt;params_collection&lt;/span&gt;&lt;/font&gt;" style="shape=partialRectangle;html=1;whiteSpace=wrap;connectable=0;strokeColor=inherit;overflow=hidden;fillColor=none;top=0;left=0;bottom=0;right=0;pointerEvents=1;fontSize=11;" parent="FwFZrQFAwfDxIqGltFOk-41" vertex="1">
                    <mxGeometry x="165" width="361" height="67" as="geometry">
                        <mxRectangle width="361" height="67" as="alternateBounds"/>
                    </mxGeometry>
                </mxCell>
                <mxCell id="R9xfIT4mSATrFfbLAZ-J-1" value="&lt;b&gt;params_collection&lt;/b&gt;" style="outlineConnect=0;dashed=0;verticalLabelPosition=bottom;verticalAlign=top;align=center;html=1;shape=mxgraph.aws3.dynamo_db;fillColor=#2E73B8;gradientColor=none;" parent="1" vertex="1">
                    <mxGeometry x="454" y="149" width="72" height="81" as="geometry"/>
                </mxCell>
            </root>
        </mxGraphModel>
    </diagram>
</mxfile>